<svg width="308" height="308" viewBox="0 0 308 308" fill="none" xmlns="http://www.w3.org/2000/svg">
<g filter="url(#filter0_d_1_8)">
<rect x="4" width="300" height="300" rx="31" fill="black"/>
<rect x="4.5" y="0.5" width="299" height="299" rx="30.5" stroke="black"/>
</g>
<path d="M136 78.6802V98.5311H63.2727V77.0467C63.2727 70.2522 64.7169 64.4402 67.6051 59.6106C70.4697 54.7811 74.6009 51.0879 79.9986 48.5311C85.3726 45.9506 91.8357 44.6722 99.3878 44.6958C107.082 44.6958 113.663 46.0334 119.132 48.7086C124.577 51.3838 128.756 55.2546 131.668 60.3208C134.556 65.3871 136 71.5069 136 78.6802ZM132.413 94.6958V78.8223C132.413 72.2645 131.099 66.7247 128.472 62.2029C125.82 57.6575 122.032 54.2247 117.108 51.9047C112.16 49.5846 106.253 48.4245 99.3878 48.4245C92.5933 48.4482 86.7694 49.5846 81.9162 51.8336C77.063 54.059 73.3461 57.3024 70.7656 61.5637C68.1615 65.8251 66.8594 71.0334 66.8594 77.1887V94.6958H132.413Z" fill="white"/>
<path d="M271.447 104.091L249.714 235H234.373L180.168 132.216H178.89L161.759 235H145.907L167.64 104.091H182.981L237.441 207.131H238.719L255.85 104.091H271.447Z" fill="white"/>
<path d="M34.0739 235L36.1193 223.494L124.074 118.153H52.7386L55.0398 104.091H145.295L143.506 115.597L55.2955 220.938H126.631L124.33 235H34.0739Z" fill="white"/>
<line x1="41" y1="98.5" x2="158" y2="98.5" stroke="white" stroke-width="3"/>
<defs>
<filter id="filter0_d_1_8" x="0" y="0" width="308" height="308" filterUnits="userSpaceOnUse" color-interpolation-filters="sRGB">
<feFlood flood-opacity="0" result="BackgroundImageFix"/>
<feColorMatrix in="SourceAlpha" type="matrix" values="0 0 0 0 0 0 0 0 0 0 0 0 0 0 0 0 0 0 127 0" result="hardAlpha"/>
<feOffset dy="4"/>
<feGaussianBlur stdDeviation="2"/>
<feComposite in2="hardAlpha" operator="out"/>
<feColorMatrix type="matrix" values="0 0 0 0 0 0 0 0 0 0 0 0 0 0 0 0 0 0 0.25 0"/>
<feBlend mode="normal" in2="BackgroundImageFix" result="effect1_dropShadow_1_8"/>
<feBlend mode="normal" in="SourceGraphic" in2="effect1_dropShadow_1_8" result="shape"/>
</filter>
</defs>
</svg>
